<svg width="20" height="20" viewBox="0 0 20 20" fill="none" xmlns="http://www.w3.org/2000/svg">
<path fill-rule="evenodd" clip-rule="evenodd" d="M2.49935 9.16675C2.95959 9.16675 3.33268 9.53984 3.33268 10.0001C3.33268 10.0017 3.33275 10.0059 3.33552 10.0151C3.33847 10.0249 3.34555 10.0435 3.36233 10.071C3.39745 10.1287 3.46892 10.215 3.60284 10.3212C3.87567 10.5374 4.32258 10.7687 4.95074 10.9784C6.19844 11.3949 7.97999 11.6667 9.99935 11.6667C12.0187 11.6667 13.8003 11.3949 15.048 10.9784C15.6761 10.7687 16.123 10.5374 16.3959 10.3212C16.5298 10.215 16.6013 10.1287 16.6364 10.071C16.6531 10.0435 16.6602 10.0249 16.6632 10.0151C16.6659 10.0059 16.666 10.0017 16.666 10.0001C16.666 9.53984 17.0391 9.16675 17.4993 9.16675C17.9596 9.16675 18.3327 9.53984 18.3327 10.0001C18.3327 10.7079 17.905 11.2518 17.431 11.6274C16.9486 12.0097 16.3017 12.3169 15.5757 12.5593C14.1151 13.0469 12.1467 13.3334 9.99935 13.3334C7.85205 13.3334 5.88359 13.0469 4.42296 12.5593C3.69695 12.3169 3.05011 12.0097 2.56773 11.6274C2.09368 11.2518 1.66602 10.7079 1.66602 10.0001C1.66602 9.53984 2.03911 9.16675 2.49935 9.16675Z" fill="#26B0DC"/>
<path fill-rule="evenodd" clip-rule="evenodd" d="M3.33268 4.16653L3.33268 4.16659L3.33268 4.16664C3.33268 4.16738 3.33267 4.17093 3.33523 4.17933C3.33806 4.18862 3.34504 4.20696 3.36191 4.23445C3.39728 4.29206 3.46941 4.37869 3.60455 4.48519C3.8797 4.70203 4.32948 4.93375 4.95957 5.14378C6.21104 5.56094 7.99292 5.83325 9.99935 5.83325C12.0058 5.83325 13.7877 5.56094 15.0391 5.14378C15.6692 4.93375 16.119 4.70203 16.3942 4.48519C16.5293 4.37869 16.6014 4.29206 16.6368 4.23445C16.6537 4.20696 16.6606 4.18862 16.6635 4.17933C16.666 4.17093 16.666 4.16738 16.666 4.16664V4.16659C16.666 4.16598 16.6661 4.16247 16.6635 4.15384C16.6606 4.14456 16.6537 4.12621 16.6368 4.09873C16.6014 4.04111 16.5293 3.95448 16.3942 3.84798C16.119 3.63114 15.6692 3.39942 15.0391 3.18939C13.7877 2.77223 12.0058 2.49992 9.99935 2.49992C7.99292 2.49992 6.21104 2.77223 4.95957 3.18939C4.32948 3.39942 3.8797 3.63114 3.60455 3.84798C3.46941 3.95448 3.39728 4.04111 3.36191 4.09873C3.34504 4.12621 3.33806 4.14456 3.33523 4.15384C3.33267 4.16224 3.33268 4.16579 3.33268 4.16653ZM4.43252 1.60825C5.89553 1.12058 7.86364 0.833252 9.99935 0.833252C12.1351 0.833252 14.1032 1.12058 15.5662 1.60825C16.2933 1.85063 16.9419 2.15761 17.4258 2.53896C17.9003 2.91291 18.3327 3.45663 18.3327 4.16659C18.3327 4.87654 17.9003 5.42026 17.4258 5.79421C16.9419 6.17556 16.2933 6.48254 15.5662 6.72492C14.1032 7.21259 12.1351 7.49992 9.99935 7.49992C7.86364 7.49992 5.89553 7.21259 4.43252 6.72492C3.70538 6.48254 3.05682 6.17556 2.57292 5.79421C2.09843 5.42026 1.66602 4.87654 1.66602 4.16659C1.66602 3.45663 2.09843 2.91291 2.57292 2.53896C3.05682 2.15761 3.70538 1.85063 4.43252 1.60825Z" fill="#26B0DC"/>
<path fill-rule="evenodd" clip-rule="evenodd" d="M2.49935 3.33325C2.95959 3.33325 3.33268 3.70635 3.33268 4.16659V15.8333C3.33268 15.8348 3.33275 15.8391 3.33552 15.8483C3.33847 15.8581 3.34555 15.8767 3.36233 15.9042C3.39745 15.9618 3.46892 16.0482 3.60284 16.1543C3.87567 16.3705 4.32258 16.6018 4.95074 16.8116C6.19844 17.2281 7.97999 17.4999 9.99935 17.4999C12.0187 17.4999 13.8003 17.2281 15.048 16.8116C15.6761 16.6018 16.123 16.3705 16.3959 16.1543C16.5298 16.0482 16.6013 15.9618 16.6364 15.9042C16.6531 15.8767 16.6602 15.8581 16.6632 15.8483C16.6659 15.8391 16.666 15.8348 16.666 15.8333V4.16659C16.666 3.70635 17.0391 3.33325 17.4993 3.33325C17.9596 3.33325 18.3327 3.70635 18.3327 4.16659V15.8333C18.3327 16.5411 17.905 17.085 17.431 17.4606C16.9486 17.8428 16.3017 18.1501 15.5757 18.3924C14.1151 18.8801 12.1467 19.1666 9.99935 19.1666C7.85205 19.1666 5.88359 18.8801 4.42296 18.3924C3.69695 18.1501 3.05011 17.8428 2.56773 17.4606C2.09368 17.085 1.66602 16.5411 1.66602 15.8333V4.16659C1.66602 3.70635 2.03911 3.33325 2.49935 3.33325Z" fill="#26B0DC"/>
<path d="M13.334 9.16659C13.334 8.70635 13.7071 8.33325 14.1673 8.33325C14.6276 8.33325 15.0007 8.70635 15.0007 9.16659V9.99992C15.0007 10.4602 14.6276 10.8333 14.1673 10.8333C13.7071 10.8333 13.334 10.4602 13.334 9.99992V9.16659Z" fill="#26B0DC"/>
</svg>
